HIERARCHY
ROOT pelvis
{
  OFFSET 0 100 0
  CHANNELS 6 Xposition Yposition Zposition Zrotation Xrotation Yrotation
  JOINT pelvis_right_femur
  {
    OFFSET -10.78128 -3.44521 -0.5502486
    CHANNELS 3 Zrotation Xrotation Yrotation
    JOINT right_femur_tibia
    {
      OFFSET -0.8047443 -44.0398 -0.1307829
      CHANNELS 3 Zrotation Xrotation Yrotation
      JOINT right_tibia_foot
      {
        OFFSET 3.006224 -47.83518 -5
        CHANNELS 3 Zrotation Xrotation Yrotation
        End Site
        {
          OFFSET 0 -5 15
        }
      }
    }
  }
  JOINT pelvis_left_femur
  {
    OFFSET 10.78128 -3.44521 -0.5502486
    CHANNELS 3 Zrotation Xrotation Yrotation
    JOINT left_femur_tibia
    {
      OFFSET 0.8047443 -44.0398 -0.1307829
      CHANNELS 3 Zrotation Xrotation Yrotation
      JOINT left_tibia_foot
      {
        OFFSET -4.370144 -48.10324 -4.275266
        CHANNELS 3 Zrotation Xrotation Yrotation
        End Site
        {
          OFFSET 0 -5 15
        }
      }
    }
  }
  JOINT pelvis_spine1
  {
    OFFSET 0 6.468898 -3.129235
    CHANNELS 3 Zrotation Xrotation Yrotation
    JOINT spine1
    {
      OFFSET 0 23.15396 4.99043
      CHANNELS 3 Zrotation Xrotation Yrotation
      JOINT spine2
      {
        OFFSET 0 20.79997 -5.064912
        CHANNELS 3 Zrotation Xrotation Yrotation
        JOINT neck
        {
          OFFSET 0 14.38658 9.616178
          CHANNELS 3 Zrotation Xrotation Yrotation
          End Site
          {
            OFFSET 0 20 0
          }
        }
      }
      JOINT right_manubrium
      {
        OFFSET -5.722621 16.35077 3.967754
        CHANNELS 3 Zrotation Xrotation Yrotation
        JOINT right_clavicle
        {
          OFFSET -13.16364 1.694482 -4.693211
          CHANNELS 3 Zrotation Xrotation Yrotation
          JOINT right_humerus
          {
            OFFSET -28.5034 -0.3100689 -2.792744
            CHANNELS 3 Zrotation Xrotation Yrotation
            JOINT right_radius
            {
              OFFSET -25.15693 0.02248979 -1.271978
              CHANNELS 3 Zrotation Xrotation Yrotation
              End Site
              {
                OFFSET -15 0 0
              }
            }
          }
        }
      }
      JOINT left_manubrium
      {
        OFFSET 5.722621 16.35077 3.967754
        CHANNELS 3 Zrotation Xrotation Yrotation
        JOINT left_clavicle
        {
          OFFSET 13.16364 1.694482 -4.693211
          CHANNELS 3 Zrotation Xrotation Yrotation
          JOINT left_humerus
          {
            OFFSET 29.39168 -1.063119 -2.237045
            CHANNELS 3 Zrotation Xrotation Yrotation
            JOINT left_radius
            {
              OFFSET 24.59957 -0.9528479 0.9047498
              CHANNELS 3 Zrotation Xrotation Yrotation
              End Site
              {
                OFFSET 15 -0 -0
              }
            }
          }
        }
      }
    }
  }
}
MOTION
Frames: 13
Frame Time: 0.0416666666667
-996.1263 108.5411 2379.489 -4.657611 -2.396708 -56.54149 6.639508 2.330992 1.223186 -0 8.499748 -0 -9.653329 -10.77259 -1.444823 0.5830082 -16.87456 -4.725448 -0 51.14301 -0 -3.81683 -3.691681 13.49278 1.212604 -3.899288 8.161634 -0.5131216 17.94342 -6.529172 -0.4438933 18.96426 4.214208 5.173551 -15.80282 1.203336 1.213395 -28.47449 13.22216 87.97504 17.50919 -14.82747 -0 0 27.9945 -23.32874 14.68896 10.16651 4.222258 -27.61575 -11.20569 -95.85835 7.347069 35.40913 0 0 -6.03449 9.344799 13.94156 0.9402731
-999.9492 108.2725 2382.256 -4.684001 -2.329783 -57.19327 6.663649 5.781837 0.6929225 -0 6.879748 -0 -9.723567 -13.41003 -1.061213 2.124944 -21.10899 -3.38402 -0 40.68847 -0 -2.040121 -3.78765 14.5096 1.17453 -3.853957 8.175855 -0.528812 17.86122 -6.458055 -0.4493817 18.98259 4.257265 5.196327 -15.82457 1.231101 1.226023 -28.48559 13.1983 87.87384 17.68353 -14.62503 -0 0 28.04059 -23.35861 14.59696 10.22326 4.215563 -27.48589 -11.14456 -95.95258 7.338107 35.53933 0 0 -5.736996 9.266448 13.85132 1.028316
-1003.725 107.4581 2385.111 -4.320957 -1.993164 -57.68395 6.358873 8.855164 0.4414612 -0 6.257679 -0 -9.562479 -16.12011 -0.833845 3.312712 -23.89948 -2.672682 -0 29.23711 -0 -0.4799952 -3.777493 15.31667 1.140424 -3.813821 8.182867 -0.5436469 17.78633 -6.397111 -0.4528839 19.00497 4.297489 5.219591 -15.84143 1.257132 1.237059 -28.47981 13.17602 87.7907 17.83623 -14.46323 -0 0 28.05561 -23.38342 14.51102 10.26324 4.217241 -27.38109 -11.09209 -96.02124 7.336743 35.61742 0 0 -5.504748 9.21884 13.78392 1.079246
-1007.537 106.2495 2388.13 -3.913957 -1.733482 -58.064 5.649744 11.67427 0.5441292 -0 6.945044 -0 -9.285295 -18.32799 -0.8201892 3.749729 -24.98034 -2.88908 -0 18.90415 -0 0.7387136 -3.671863 16.13878 1.111646 -3.780444 8.182705 -0.5568436 17.72204 -6.348841 -0.4544041 19.03002 4.333048 5.242224 -15.85292 1.280137 1.246169 -28.45833 13.15633 87.72878 17.96137 -14.34802 -0 0 28.04047 -23.40203 14.43495 10.2852 4.226694 -27.30509 -11.05041 -96.06225 7.342511 35.64256 0 0 -5.345158 9.202616 13.74103 1.09251
-1011.453 104.861 2391.368 -3.831933 -1.83574 -58.41983 4.640552 14.27225 0.8446099 -0 9.012258 -0 -9.197521 -19.26452 -0.955584 3.311371 -24.33998 -4.01291 -0 11.38182 -0 1.645422 -3.502054 17.12928 1.089203 -3.754937 8.175856 -0.5677604 17.67085 -6.314948 -0.4541028 19.05623 4.362505 5.26327 -15.85888 1.298997 1.253127 -28.42321 13.14002 87.68997 18.05497 -14.28252 -0 0 27.99782 -23.41359 14.37167 10.28884 4.242936 -27.25994 -11.02102 -96.07513 7.354419 35.61694 0 0 -5.261441 9.216642 13.72262 1.069702
-1015.535 103.5418 2394.858 -4.255601 -2.388857 -58.8268 3.527378 16.58619 1.069915 -0 12.39225 -0 -9.560247 -18.34594 -1.076277 2.186774 -22.266 -5.727959 -0 7.393735 -0 2.260073 -3.324555 18.25535 1.073809 -3.738055 8.163086 -0.5759089 17.63464 -6.296469 -0.452222 19.08206 4.384787 5.281928 -15.85937 1.312809 1.257764 -28.377 13.12771 87.67514 18.11451 -14.26773 -0 0 27.93134 -23.41754 14.32334 10.27452 4.264782 -27.24642 -11.00484 -96.06058 7.371198 35.54467 0 0 -5.253801 9.258634 13.72756 1.013811
-1019.826 102.5441 2398.593 -5.112364 -3.273571 -59.31049 2.478267 18.45851 1.010684 -0 17.04857 -0 -10.43286 -15.40136 -0.9714373 0.6972119 -19.23284 -7.657126 -0 6.632906 -0 2.500345 -3.240649 19.33977 1.065958 -3.730292 8.145268 -0.5809545 17.61468 -6.293903 -0.4490087 19.10611 4.399123 5.297522 -15.85463 1.320925 1.259946 -28.32238 13.11984 87.6844 18.1385 -14.30313 -0 0 27.84508 -23.4137 14.29156 10.24315 4.291012 -27.26438 -11.00235 -96.02003 7.391568 35.43079 0 0 -5.320478 9.325719 13.75426 0.9285483
-1024.329 102.0876 2402.519 -6.163592 -4.255941 -59.82489 1.58025 19.61468 0.6194092 -0 23.03292 -0 -11.72385 -10.63625 -0.462008 -0.882534 -15.71764 -9.550007 -0 8.17035 -0 2.23366 -3.385521 20.18256 1.065982 -3.731967 8.123252 -0.5827021 17.61181 -6.307345 -0.4446574 19.12724 4.404984 5.309456 -15.84495 1.322967 1.25955 -28.26187 13.11673 87.71738 18.12605 -14.38715 -0 0 27.74296 -23.40219 14.27752 10.19606 4.320483 -27.31305 -11.01368 -95.95535 7.414424 35.2805 0 0 -5.458618 9.414867 13.80116 0.8178197
-1028.979 102.3152 2406.527 -7.12522 -5.092961 -60.25613 0.8558691 19.63686 0.004553203 -0 30.32389 -0 -13.30223 -4.53764 0.5263233 -2.361975 -12.07897 -11.29316 -0 10.86333 -0 1.40758 -3.89537 20.65654 1.074086 -3.743267 8.097796 -0.5810815 17.62648 -6.336555 -0.4392848 19.14458 4.402038 5.317198 -15.83064 1.318821 1.256458 -28.19773 13.11859 87.77332 18.07674 -14.51752 -0 0 27.62857 -23.38344 14.28211 10.13485 4.352178 -27.3912 -11.03866 -95.86861 7.438929 35.0988 0 0 -5.664694 9.523104 13.86695 0.6854604
-1033.642 103.2345 2410.466 -7.758909 -5.60546 -60.46016 0.2936943 18.02722 -0.6272832 -0 38.43881 -0 -15.00396 2.086129 1.900704 -3.600835 -8.531263 -12.83284 -0 13.54279 -0 0.167575 -4.872826 20.74935 1.090294 -3.764185 8.069619 -0.5761519 17.65866 -6.380879 -0.432946 19.15752 4.390178 5.320287 -15.81207 1.30865 1.250584 -28.132 13.12553 87.85091 17.9908 -14.69089 -0 0 27.50531 -23.35825 14.30585 10.06157 4.385152 -27.49694 -11.07673 -95.76229 7.464469 34.89078 0 0 -5.933977 9.647316 13.95037 0.5354579
-1038.148 104.6656 2414.188 -7.955413 -5.741582 -60.33579 -0.1240618 14.46367 -1.093911 -0 45.99824 -0 -16.54774 8.061803 3.346848 -4.504529 -5.164447 -14.10404 -0 15.21519 -0 -1.099852 -6.349485 20.5544 1.114305 -3.79433 8.039557 -0.5681366 17.70756 -6.438943 -0.4256929 19.16571 4.369646 5.318379 -15.78978 1.292946 1.241942 -28.06686 13.13741 87.94778 17.8699 -14.90178 -0 0 27.37708 -23.32779 14.34856 9.978983 4.418372 -27.62703 -11.12673 -95.63986 7.490491 34.66282 0 0 -6.258796 9.783573 14.04964 0.3727249
-1042.358 106.2574 2417.599 -7.779313 -5.615427 -59.89949 -0.3994316 9.164056 -1.415896 -0 50.81896 -0 -17.53961 12.15491 4.399931 -5.069764 -1.993081 -14.99906 -0 15.46059 -0 -1.887172 -8.250177 20.1949 1.145264 -3.832646 8.008773 -0.5574711 17.77122 -6.508252 -0.417662 19.16895 4.341228 5.311349 -15.76461 1.2726 1.230743 -28.00495 13.15381 88.05983 17.71826 -15.14116 -0 0 27.24906 -23.29379 14.40888 9.891034 4.450514 -27.77604 -11.18647 -95.50651 7.516268 34.42404 0 0 -6.626196 9.926281 14.16152 0.2040743
-1046.228 107.6151 2420.689 -7.387982 -5.432144 -59.28863 -0.5368616 2.957417 -1.848204 -0 51.07081 -0 -17.72822 13.7497 4.757186 -5.404919 0.9641189 -15.4064 -0 14.65752 -0 -1.866686 -10.40292 19.73003 1.181619 -3.877228 7.97886 -0.5448101 17.84626 -6.585019 -0.4091518 19.16722 4.306376 5.299413 -15.73779 1.248873 1.217482 -27.94953 13.17387 88.18094 17.54342 -15.3959 -0 0 27.12803 -23.2584 14.48389 9.802804 4.479899 -27.93594 -11.25268 -95.36949 7.54074 34.18693 0 0 -7.016816 10.06785 14.28081 0.0385412
